<svg width="661" height="538" viewBox="0 0 661 538" fill="none" xmlns="http://www.w3.org/2000/svg">
<g filter="url(#filter0_f)">
<path d="M306.034 463.684L74.5447 325.434L327.737 190.398L586.555 342.313L306.034 463.684Z" fill="#5547FE"/>
</g>
<path d="M87.7727 354.583L85.9265 270.777L333.215 419.22L334.772 503.354L87.7727 354.583Z" fill="#5547FE"/>
<path d="M634.679 373.306L633.453 289.49L333.215 419.241L334.77 503.351L634.679 373.306Z" fill="#5C4EFF"/>
<path d="M85.9226 270.783L385.259 142.773L633.453 289.491L333.251 419.246L85.9226 270.783Z" fill="#7362FF"/>
<path d="M310.009 174.708L308.509 91.208L370.509 127.708L372.009 211.708L310.009 174.708Z" fill="#B9E1FF"/>
<path d="M370.509 127.708L445.009 95.208L446.509 179.208L372.009 211.708L370.509 127.708Z" fill="#CAF7FF"/>
<path d="M308.509 91.208L383.009 58.708L445.009 95.208L370.509 127.708L308.509 91.208Z" fill="#F8FFFF"/>
<path d="M372.005 211.205L370.505 127.705L432.505 164.205L434.005 248.205L372.005 211.205Z" fill="#B9E1FF"/>
<path d="M432.505 164.205L507.005 131.705L508.505 215.705L434.005 248.205L432.505 164.205Z" fill="#CAF7FF"/>
<path d="M370.505 127.705L445.005 95.2051L507.005 131.705L432.505 164.205L370.505 127.705Z" fill="#F8FFFF"/>
<path d="M297.51 243.704L296.01 160.204L358.01 196.704L359.51 280.704L297.51 243.704Z" fill="#B9E1FF"/>
<path d="M358.01 196.704L432.51 164.204L434.01 248.204L359.51 280.704L358.01 196.704Z" fill="#CAF7FF"/>
<path d="M296.01 160.204L370.51 127.704L432.51 164.204L358.01 196.704L296.01 160.204Z" fill="#F8FFFF"/>
<path d="M271.246 381.804L269.746 297.804L332.246 334.804L333.246 419.304L271.246 381.804Z" fill="#FFBC38"/>
<path d="M483.746 354.304L482.746 269.804L332.246 334.804L333.246 419.304L483.746 354.304Z" fill="url(#paint0_linear)"/>
<path d="M482.746 269.804L420.246 232.804L269.746 297.804L332.246 334.804L482.746 269.804Z" fill="#FFFA4E"/>
<path d="M559.416 321.486L558.416 236.986L482.734 269.776L483.734 354.276L559.416 321.486Z" fill="#FFF2D8"/>
<path d="M558.416 236.986L495.916 199.986L420.234 232.776L482.734 269.776L558.416 236.986Z" fill="white"/>
<circle cx="222.181" cy="43.5169" r="34.6419" fill="url(#paint1_linear)" class="bouncing" />
<ellipse cx="222.181" cy="280.704" rx="22.6556" ry="11.1744" fill="#00007C"/>
<g filter="url(#filter1_f)">
<ellipse cx="148.536" cy="472.809" rx="16.6797" ry="3.37942" fill="black" fill-opacity="0.6"/>
</g>
<circle cx="148.536" cy="458.67" r="16.6797" fill="url(#paint2_linear)"/>
<g filter="url(#filter2_f)">
<ellipse cx="565.294" cy="488.935" rx="25.4189" ry="5.15004" fill="black" fill-opacity="0.6"/>
</g>
<circle cx="565.294" cy="467.388" r="25.4189" fill="url(#paint3_linear)"/>
<defs>
<filter id="filter0_f" x="0.544678" y="116.398" width="660.01" height="421.286" filterUnits="userSpaceOnUse" color-interpolation-filters="sRGB">
<feFlood flood-opacity="0" result="BackgroundImageFix"/>
<feBlend mode="normal" in="SourceGraphic" in2="BackgroundImageFix" result="shape"/>
<feGaussianBlur stdDeviation="37" result="effect1_foregroundBlur"/>
</filter>
<filter id="filter1_f" x="117.857" y="455.429" width="61.3594" height="34.7588" filterUnits="userSpaceOnUse" color-interpolation-filters="sRGB">
<feFlood flood-opacity="0" result="BackgroundImageFix"/>
<feBlend mode="normal" in="SourceGraphic" in2="BackgroundImageFix" result="shape"/>
<feGaussianBlur stdDeviation="7" result="effect1_foregroundBlur"/>
</filter>
<filter id="filter2_f" x="518.54" y="462.449" width="93.5082" height="52.9704" filterUnits="userSpaceOnUse" color-interpolation-filters="sRGB">
<feFlood flood-opacity="0" result="BackgroundImageFix"/>
<feBlend mode="normal" in="SourceGraphic" in2="BackgroundImageFix" result="shape"/>
<feGaussianBlur stdDeviation="10.6676" result="effect1_foregroundBlur"/>
</filter>
<linearGradient id="paint0_linear" x1="333.746" y1="375.304" x2="483.746" y2="316.304" gradientUnits="userSpaceOnUse">
<stop stop-color="#FFCB3D"/>
<stop offset="1" stop-color="#FFCB3D"/>
</linearGradient>
<linearGradient id="paint1_linear" x1="222.181" y1="8.875" x2="222.181" y2="78.1589" gradientUnits="userSpaceOnUse">
<stop stop-color="#FFA100"/>
<stop offset="1" stop-color="#FB6600"/>
</linearGradient>
<linearGradient id="paint2_linear" x1="148.536" y1="441.99" x2="148.536" y2="475.35" gradientUnits="userSpaceOnUse">
<stop stop-color="#FEFDFF"/>
<stop offset="0.797952" stop-color="#FEFEFF"/>
<stop offset="1" stop-color="#EAEAEA"/>
</linearGradient>
<linearGradient id="paint3_linear" x1="565.294" y1="441.969" x2="565.294" y2="492.807" gradientUnits="userSpaceOnUse">
<stop stop-color="#FEFDFF"/>
<stop offset="0.797952" stop-color="#FEFEFF"/>
<stop offset="1" stop-color="#EAEAEA"/>
</linearGradient>
</defs>
</svg>




