<svg width="12" height="12" viewBox="0 0 12 12" fill="none" xmlns="http://www.w3.org/2000/svg">
<path d="M11.6572 1.64065C11.4807 1.46381 11.1943 1.46351 11.0177 1.6399L5.59213 7.05119L3.63458 4.92511C3.46544 4.7415 3.17945 4.72959 2.99554 4.89872C2.81176 5.06787 2.8 5.35399 2.96915 5.53777L5.24554 8.00998C5.3289 8.10058 5.44558 8.1532 5.5686 8.15576C5.5719 8.1559 5.57509 8.1559 5.57826 8.1559C5.69781 8.1559 5.81282 8.10841 5.89755 8.02399L11.6563 2.28028C11.8333 2.10391 11.8336 1.81748 11.6572 1.64065Z" fill="#4C40F7"/>
<path d="M11.5477 5.54773C11.2979 5.54773 11.0955 5.75018 11.0955 6C11.0955 8.80976 8.80976 11.0955 6 11.0955C3.19041 11.0955 0.904523 8.80976 0.904523 6C0.904523 3.19041 3.19041 0.904523 6 0.904523C6.2498 0.904523 6.45227 0.70207 6.45227 0.452273C6.45227 0.202453 6.2498 0 6 0C2.69156 0 0 2.69156 0 6C0 9.3083 2.69156 12 6 12C9.3083 12 12 9.3083 12 6C12 5.7502 11.7975 5.54773 11.5477 5.54773Z" fill="#4C40F7"/>
</svg>
