<svg width="367" height="87" viewBox="0 0 367 87" fill="none" xmlns="http://www.w3.org/2000/svg">
<g filter="url(#filter0_d)">
<path fill-rule="evenodd" clip-rule="evenodd" d="M61.5659 17.6818L60.8265 17.2467C56.6367 19.7142 35.9781 31.8836 33.4842 33.352H32.9913C30.4974 31.8836 9.83845 19.7142 5.64913 17.2467L4.90967 17.6818V59.4293L5.15663 59.8649C6.75574 60.807 15.6872 66.0675 18.3335 67.627L19.0735 67.1913V42.7122L18.3335 42.2765C17.1671 42.9636 14.9099 44.2936 13.743 44.9812L13.0034 44.5451V31.9849L13.743 31.5491L19.0735 34.6896L24.1079 37.6544L25.144 38.2652C25.1487 38.2676 31.6359 42.089 32.9913 42.8878L33.2383 43.323V66.5805L32.9913 67.0157C31.9174 67.6485 27.6252 70.1771 25.8839 71.2031V72.074C27.6252 73.0995 31.9179 75.6286 32.9913 76.2609H33.4842C36.1002 74.72 58.7039 61.4048 61.3194 59.8649L61.5659 59.4293V17.6818ZM42.0706 38.7004V37.8295C44.2389 36.5526 50.5643 32.8266 52.7326 31.5491L53.4716 31.9849V44.5451L52.7326 44.9812C50.5643 43.7038 44.2389 39.9778 42.0706 38.7004ZM47.6481 8.34172H47.1552C45.4321 7.32674 35.2078 1.30358 33.4842 0.289062H32.9913C31.2682 1.30358 21.0431 7.32674 19.3205 8.34172H18.8274C17.227 7.39927 8.29546 2.13867 5.64913 0.579196L4.90967 1.0144V9.36913L5.15663 9.80481C7.77162 11.3452 30.3754 24.6599 32.9913 26.2007H33.4842C36.1002 24.6599 58.7039 11.3452 61.3194 9.80481L61.5659 9.36913V1.0144L60.826 0.579196C58.1797 2.13867 49.2482 7.39927 47.6481 8.34172Z" fill="#00FF93"/>
<path fill-rule="evenodd" clip-rule="evenodd" d="M117.771 57.4809H96.0522V12.2812H117.599V20.6133H104.371V30.6857H115.763V39.0639H104.371V49.1352H117.771V57.4809Z" fill="#00FF93"/>
<path fill-rule="evenodd" clip-rule="evenodd" d="M147.212 57.4819L138.118 33.7945V57.4819H129.826V12.2822H138.749L147.874 35.9813V12.2822H156.137V57.4242L156.165 57.4819H147.212Z" fill="#00FF93"/>
<path fill-rule="evenodd" clip-rule="evenodd" d="M190.463 20.6144H182.2V57.4809H173.852V20.6144H165.588V12.2812H190.463V20.6144Z" fill="#00FF93"/>
<path fill-rule="evenodd" clip-rule="evenodd" d="M227.585 57.4819H218.662L211.575 39.0649H209.108V57.4819H200.758V12.2822H220.756L226.065 17.0243V33.6212L220.385 38.9504L227.585 57.4819ZM209.108 30.6866H217.744V20.588H209.108V30.6866Z" fill="#00FF93"/>
<path fill-rule="evenodd" clip-rule="evenodd" d="M265.21 52.762L259.845 57.4809H244.351L239.043 52.762V17.0245L244.351 12.2812H259.845L265.21 17.0245V52.762ZM247.364 49.1363H256.86V20.6238H247.364V49.1363Z" fill="#00FF93"/>
<path fill-rule="evenodd" clip-rule="evenodd" d="M303.518 37.3382L298.124 42.1382H286.734V57.4809H278.411V12.2812H298.124L303.518 17.0475V37.3382ZM286.734 33.7935H295.197V20.6165H286.734V33.7935Z" fill="#00FF93"/>
<path fill-rule="evenodd" clip-rule="evenodd" d="M323.035 12.2783H320.029L314.686 17.0236V57.4812H323.035V12.2783Z" fill="#00FF93"/>
<path fill-rule="evenodd" clip-rule="evenodd" d="M343.103 49.1362H352.599V20.6237H343.103V49.1362ZM351.834 63.3889L346.256 57.4808H340.059L334.781 52.7619V17.0243L340.118 12.2822H355.585L360.947 17.0243V52.7272L355.758 57.3086L361.416 63.3889H351.834Z" fill="#00FF93"/>
</g>
<defs>
<filter id="filter0_d" x="0.909668" y="0.289062" width="364.507" height="83.9718" filterUnits="userSpaceOnUse" color-interpolation-filters="sRGB">
<feFlood flood-opacity="0" result="BackgroundImageFix"/>
<feColorMatrix in="SourceAlpha" type="matrix" values="0 0 0 0 0 0 0 0 0 0 0 0 0 0 0 0 0 0 127 0"/>
<feOffset dy="4"/>
<feGaussianBlur stdDeviation="2"/>
<feColorMatrix type="matrix" values="0 0 0 0 0 0 0 0 0 0 0 0 0 0 0 0 0 0 0.25 0"/>
<feBlend mode="normal" in2="BackgroundImageFix" result="effect1_dropShadow"/>
<feBlend mode="normal" in="SourceGraphic" in2="effect1_dropShadow" result="shape"/>
</filter>
</defs>
</svg>
