<!-- Generator: Adobe Illustrator 24.0.0, SVG Export Plug-In  -->
<svg version="1.1" xmlns="http://www.w3.org/2000/svg" xmlns:xlink="http://www.w3.org/1999/xlink" x="0px" y="0px" width="1440px"
	 height="821.7px" viewBox="0 0 1440 821.7" style="enable-background:new 0 0 1440 821.7;" xml:space="preserve">
<style type="text/css">
	.st0{fill-rule:evenodd;clip-rule:evenodd;fill:#4C40F7;}
	.st1{fill-rule:evenodd;clip-rule:evenodd;fill:#00113B;}
</style>
<defs>
</defs>
<polygon class="st0" points="736.6,0 736.6,505.6 601.6,562.8 601.6,562.1 513.2,599.4 483.4,612 483.4,614.4 378.2,658.9 
	378.2,658.2 260,708.1 260,710.7 125,767.8 125,767.2 0,819.9 0,316.9 131,260.6 135,258.9 223.4,220.8 258.9,205.5 260,205 
	260,205.1 384.2,151.7 388.2,150 512.7,96.3 513.2,96.1 607.6,55.6 611.6,53.9 "/>
<polygon class="st0" points="513.2,599.4 513.2,601.7 483.4,614.4 483.4,612 "/>
<polygon class="st0" points="223.4,220.8 258.9,205.5 223.4,220.8 "/>
<polygon class="st0" points="378.2,658.9 483.4,614.4 483.4,614.5 348.4,671.7 348.4,671 260,708.3 260,708.1 378.2,658.2 "/>
<polygon class="st0" points="384.2,151.7 260,205.1 260,205 354.4,164.5 358.4,162.8 483.4,108.9 483.4,108.9 512.7,96.3 388.2,150 
	"/>
<polygon class="st1" points="1440,199.3 1440,821.7 0,821.7 0,816.3 "/>
</svg>
