<svg xmlns="http://www.w3.org/2000/svg" xmlns:xlink="http://www.w3.org/1999/xlink" version="1.1" id="Capa_1" x="0px" y="0px" viewBox="0 0 512 512" style="enable-background:new 0 0 512 512;" xml:space="preserve" fill="#1B1B87">
<g>
	<g>
		<path d="M347,60h-47.58c-6.192-17.458-22.865-30-42.42-30h-17.656c-2.326-6.339-6.138-12.155-11.265-17.056    C219.347,4.597,207.955,0,196,0c-19.556,0-36.239,12.539-42.43,30H135c-19.555,0-36.228,12.542-42.42,30H45    C20.187,60,0,80.187,0,105v362c0,24.813,20.187,45,45,45h302c24.813,0,45-20.187,45-45V105C392,80.187,371.813,60,347,60z M135,60    h31c8.284,0,15-6.716,15-15c0-8.271,6.729-15,15-15c8.523,0,16,7.009,16,15c0,8.284,6.716,15,15,15h30c8.271,0,15,6.729,15,15    s-6.729,15-15,15H135c-8.271,0-15-6.729-15-15S126.729,60,135,60z M362,467c0,8.271-6.729,15-15,15H45c-8.271,0-15-6.729-15-15    V105c0-8.271,6.729-15,15-15h47.58c6.192,17.458,22.865,30,42.42,30h122c19.555,0,36.227-12.542,42.419-30H347    c8.271,0,15,6.729,15,15V467z"/>
	</g>
</g>
<g>
	<g>
		<path d="M126.213,195l19.394-19.394c5.858-5.858,5.858-15.355,0-21.213c-5.857-5.858-15.355-5.858-21.213,0L105,173.787    l-19.394-19.394c-5.857-5.858-15.355-5.858-21.213,0c-5.858,5.858-5.858,15.355,0,21.213L83.787,195l-19.394,19.394    c-5.857,5.857-5.857,15.355,0.001,21.212c5.857,5.858,15.356,5.858,21.213,0L105,216.213l19.394,19.394    c5.857,5.858,15.356,5.858,21.213,0c5.858-5.858,5.858-15.355,0-21.213L126.213,195z"/>
	</g>
</g>
<g>
	<g>
		<path d="M308.213,407l19.393-19.394c5.859-5.857,5.859-15.355,0-21.212c-5.857-5.858-15.355-5.858-21.213,0L287,385.787    l-19.393-19.394c-5.857-5.858-15.355-5.858-21.213,0c-5.858,5.857-5.858,15.355,0,21.213L265.787,407l-19.393,19.394    c-5.858,5.858-5.858,15.355,0,21.213c5.857,5.858,15.356,5.858,21.213,0L287,428.213l19.393,19.394    c5.857,5.858,15.355,5.858,21.213,0c5.858-5.857,5.858-15.355,0-21.213L308.213,407z"/>
	</g>
</g>
<g>
	<g>
		<path d="M327.607,184.394l-30.001-30C294.794,151.58,290.978,150,287,150c-3.978,0-7.794,1.581-10.606,4.394l-30,30    c-5.858,5.858-5.858,15.355,0,21.213c5.857,5.858,15.355,5.858,21.213,0l4.393-4.393V255c0,8.271-6.729,15-15,15H135    c-12.089,0-23.474,4.944-32.056,13.921C94.597,292.653,90,304.045,90,316v48.58c-17.459,6.192-30,22.865-30,42.42    c0,24.813,20.187,45,45,45s45-20.187,45-45c0-19.555-12.541-36.228-30-42.42V316c0-8.523,7.009-16,15-16h122    c24.813,0,45-20.187,45-45v-53.787l4.394,4.394c5.857,5.858,15.356,5.858,21.213,0    C333.465,199.749,333.465,190.252,327.607,184.394z M105,422c-8.271,0-15-6.729-15-15s6.729-15,15-15s15,6.729,15,15    S113.271,422,105,422z"/>
	</g>
</g>
<g>
	<g>
		<path d="M467,120c-24.813,0-45,20.187-45,45c0,9.576,0.001,232.484,0.001,242c0,2.215,0.542,4.626,1.583,6.708l30,60    C456.124,478.79,461.318,482,467,482s10.876-3.21,13.416-8.292l30-60c0.998-1.996,1.584-4.337,1.584-6.708    c0-11.809,0-233.777,0-242C512,140.187,491.813,120,467,120z M467,433.459l-10.833-21.664c3.378-1.453,7.046-2.221,10.833-2.221    s7.454,0.769,10.832,2.221L467,433.459z M482,381.579c-9.813-2.638-20.188-2.638-30,0.001V210h30V381.579z M482,180h-30v-15    c0-8.271,6.729-15,15.001-15c8.271,0,14.999,6.729,14.999,15V180z"/>
	</g>
</g>
<g>
</g>
<g>
</g>
<g>
</g>
<g>
</g>
<g>
</g>
<g>
</g>
<g>
</g>
<g>
</g>
<g>
</g>
<g>
</g>
<g>
</g>
<g>
</g>
<g>
</g>
<g>
</g>
<g>
</g>
</svg>