<svg xmlns="http://www.w3.org/2000/svg" xmlns:xlink="http://www.w3.org/1999/xlink" version="1.1" id="Capa_1" x="0px" y="0px" viewBox="0 0 512.001 512.001" style="enable-background:new 0 0 512.001 512.001;" xml:space="preserve" fill="#1B1B87">
<g>
	<g>
		<path d="M483.771,195l26.646-53.292c2.705-5.41,1.896-11.916-2.053-16.499c-3.948-4.583-10.262-6.347-16.014-4.47l-92,30    c-2.245,0.732-4.286,1.984-5.956,3.654l-7.258,7.258C371.268,69.961,291.155,0,195,0C87.477,0,0,87.477,0,195    c0,77.347,45.267,144.318,110.699,175.818l-16.874,52.018C57.752,428.249,30,459.443,30,497c0,8.284,6.716,15,15,15    c7.908,0,291.689,0,300,0c8.284,0,15-6.716,15-15c0-37.558-27.752-68.751-63.825-74.164l-16.874-52.018    c55.815-26.871,96.946-79.555,107.834-142.47l7.258,7.258c1.67,1.67,3.711,2.922,5.956,3.654l92,30    c5.732,1.87,12.054,0.126,16.014-4.47c3.949-4.583,4.758-11.089,2.053-16.499L483.771,195z M285,452    c19.556,0,36.239,12.539,42.43,30c-9.123,0-255.991,0-264.859,0c6.191-17.461,22.874-30,42.43-30H285z M125.635,422l13.071-40.296    C156.538,387.091,175.434,390,195,390s38.462-2.909,56.294-8.296L264.365,422H125.635z M195,209.9h42.42    C231.228,227.359,214.555,240,195,240c-24.813,0-45-20.187-45-45s20.187-45,45-45c19.555,0,36.228,12.542,42.42,30H195    c-8.284,0-15,6.716-15,15S186.716,209.9,195,209.9z M195,120c-41.355,0-75,33.645-75,75s33.645,75,75,75    c36.219,0,66.522-25.908,73.491-60.1h30.433C291.623,260.717,247.804,300,195,300c-57.897,0-105-47.103-105-105    c0-57.897,47.103-105,105-105c52.804,0,96.623,39.184,103.924,90h-30.433C261.522,145.808,231.219,120,195,120z M195,60    c-74.439,0-135,60.561-135,135c0,74.439,60.561,135,135,135c69.369,0,126.676-52.694,134.162-120.1h30.149    C351.707,293.877,280.925,360,195,360c-90.981,0-165-74.019-165-165S104.019,30,195,30c85.925,0,156.707,66.023,164.311,150    h-30.149C321.676,112.595,264.369,60,195,60z M453.583,201.708l13.954,27.907l-54.471-17.762L396.213,195l16.853-16.853    l54.471-17.762l-13.954,27.907C451.472,192.515,451.472,197.485,453.583,201.708z"/>
	</g>
</g>
<g>
</g>
<g>
</g>
<g>
</g>
<g>
</g>
<g>
</g>
<g>
</g>
<g>
</g>
<g>
</g>
<g>
</g>
<g>
</g>
<g>
</g>
<g>
</g>
<g>
</g>
<g>
</g>
<g>
</g>
</svg>