<svg xmlns="http://www.w3.org/2000/svg" xmlns:xlink="http://www.w3.org/1999/xlink" version="1.1" id="Capa_1" x="0px" y="0px" viewBox="0 0 511.999 511.999" style="enable-background:new 0 0 511.999 511.999;" xml:space="preserve" fill="#1B1B87">
<g>
	<g>
		<path d="M238.661,456.053l-29.999-119.994c-1.827-7.298-5.371-13.79-10.128-19.103c7.126-7.963,11.47-18.467,11.47-29.971    c0-24.811-20.185-44.996-44.996-44.996h-32.182l-17.56-35.118c-0.065-0.129-0.137-0.252-0.202-0.381    c20.603-9.509,34.945-30.352,34.945-54.494c0-33.081-26.914-59.995-59.995-59.995s-59.995,26.914-59.995,59.995    c0,15.685,6.058,29.977,15.947,40.678c-6.957,5.879-12.216,13.903-14.606,23.399L1.362,336.062    c-3.383,13.531-0.397,27.601,8.191,38.603c4.643,5.947,10.56,10.508,17.215,13.457L0.468,493.33    c-2.009,8.036,2.877,16.18,10.914,18.188c8.036,2.009,16.18-2.878,18.189-10.913l12.158-48.634h103.144l6.479,25.924    c6.084,24.287,30.597,38.759,54.568,32.731C229.983,504.616,244.67,480.138,238.661,456.053z M90.013,121.998    c16.541,0,29.998,13.457,29.998,29.997s-13.457,29.998-29.998,29.998s-29.998-13.457-29.998-29.998S73.472,121.998,90.013,121.998    z M49.227,421.973l7.499-29.997h73.149l7.498,29.997H49.227z M198.627,481.528c-7.877,1.983-16.122-2.722-18.175-10.916    l-24.314-97.272c-1.669-6.677-7.668-11.362-14.551-11.362H45.017c-4.646,0-8.954-2.104-11.818-5.773    c-2.865-3.671-3.862-8.361-2.735-12.869l29.993-119.968c3.395-13.493,21.787-15.459,27.977-3.086    c0.005,0.01,0.011,0.018,0.016,0.028l21.691,43.382c2.541,5.082,7.734,8.291,13.416,8.291h41.452    c8.27,0,14.999,6.728,14.999,14.999s-6.728,14.999-14.999,14.999c-7.418,0-53.491,0-59.995,0c-5.721,0-10.862-3.177-13.418-8.289    c-3.705-7.408-12.715-10.412-20.123-6.707c-7.409,3.705-10.412,12.714-6.707,20.123c7.67,15.342,23.093,24.872,40.249,24.872    c6.505,0,52.589,0,59.995,0c6.895,0,12.88,4.672,14.553,11.357l29.997,119.984C211.562,471.355,206.669,479.52,198.627,481.528z"/>
	</g>
</g>
<g>
	<g>
		<path d="M485.232,388.12c19.351-8.575,30.88-30.152,25.404-52.059l-30.003-120.012c-2.387-9.487-7.643-17.505-14.597-23.38    c9.887-10.7,15.944-24.991,15.944-40.675c0-33.081-26.914-59.995-59.995-59.995c-33.081,0-59.995,26.914-59.995,59.995    c0,24.141,14.341,44.984,34.944,54.494c-0.065,0.127-0.136,0.248-0.2,0.375l-17.562,35.123h-32.181    c-24.811,0-44.996,20.185-44.996,44.996c0,11.503,4.344,22.006,11.471,29.971c-4.759,5.315-8.302,11.807-10.129,19.107    l-29.999,119.996c-6.008,24.078,8.679,48.557,32.718,54.561c23.813,5.99,48.466-8.278,54.594-32.733l6.477-25.916h103.144    l12.158,48.634c2.01,8.038,10.154,12.922,18.188,10.913c8.036-2.009,12.923-10.152,10.914-18.189L485.232,388.12z     M391.987,151.995c0-16.541,13.457-29.997,29.997-29.997c16.541,0,29.998,13.457,29.998,29.997s-13.457,29.998-29.998,29.998    C405.444,181.993,391.987,168.536,391.987,151.995z M374.624,421.973l7.498-29.997h73.149l7.499,29.997H374.624z M466.981,361.978    h-96.569c-6.882,0-12.882,4.685-14.551,11.362l-24.312,97.264c-2.063,8.231-10.321,12.9-18.201,10.918    c-8.018-2.003-12.911-10.167-10.908-18.195l29.997-119.986c1.674-6.688,7.659-11.361,14.554-11.361c7.418,0,53.491,0,59.995,0    c17.156,0,32.578-9.53,40.249-24.872c3.705-7.409,0.701-16.419-6.707-20.123c-7.408-3.704-16.419-0.701-20.123,6.707    c-2.557,5.114-7.698,8.289-13.418,8.289c-6.505,0-52.589,0-59.995,0c-8.27,0-14.999-6.728-14.999-14.999    s6.728-14.999,14.999-14.999h41.452c5.682,0,10.874-3.21,13.416-8.291c0.633-1.267,21.33-42.664,21.707-43.411    c6.281-12.556,24.626-10.235,27.972,3.064l29.998,119.99C483.897,352.791,476.738,361.978,466.981,361.978z"/>
	</g>
</g>
<g>
	<g>
		<path d="M316.993,0.008h-121.99c-24.811,0-44.996,20.185-44.996,44.996v31.997c0,24.811,20.185,44.996,44.996,44.996h54.855    l56.617,55.689c4.309,4.238,10.739,5.476,16.315,3.14c5.575-2.336,9.202-7.789,9.202-13.833v-47.566    c17.46-6.19,29.998-22.871,29.998-42.427V45.004C361.99,20.193,341.804,0.008,316.993,0.008z M331.992,77.002    c0,8.27-6.728,14.999-14.999,14.999c-8.284,0-14.999,6.714-14.999,14.999v24.204l-35.478-34.897    c-2.806-2.76-6.582-4.306-10.518-4.306h-60.995c-8.27,0-14.999-6.728-14.999-14.999V45.004c0-8.27,6.728-14.999,14.999-14.999    h121.99c8.27,0,14.999,6.728,14.999,14.999V77.002z"/>
	</g>
</g>
<g>
</g>
<g>
</g>
<g>
</g>
<g>
</g>
<g>
</g>
<g>
</g>
<g>
</g>
<g>
</g>
<g>
</g>
<g>
</g>
<g>
</g>
<g>
</g>
<g>
</g>
<g>
</g>
<g>
</g>
</svg>