<!-- Generator: Adobe Illustrator 24.0.0, SVG Export Plug-In  -->
<svg version="1.1" xmlns="http://www.w3.org/2000/svg" xmlns:xlink="http://www.w3.org/1999/xlink" x="0px" y="0px" width="15.2px"
	 height="15.2px" viewBox="0 0 15.2 15.2" style="enable-background:new 0 0 15.2 15.2;" xml:space="preserve">
<style type="text/css">
	.st0{fill:#141328;}
	.st1{fill-rule:evenodd;clip-rule:evenodd;fill:#141328;}
</style>
<defs>
</defs>
<g>
	<path class="st0" d="M12.7,3.5c0,0.5-0.4,1-1,1c-0.5,0-1-0.4-1-1c0-0.5,0.4-1,1-1C12.3,2.5,12.7,3,12.7,3.5z"/>
	<path class="st1" d="M7.6,4C5.6,4,4,5.6,4,7.6c0,2,1.6,3.6,3.6,3.6c2,0,3.6-1.6,3.6-3.6C11.2,5.6,9.6,4,7.6,4z M7.6,10
		c-1.3,0-2.4-1.1-2.4-2.4c0-1.3,1.1-2.4,2.4-2.4c1.3,0,2.4,1.1,2.4,2.4C10,8.9,8.9,10,7.6,10z"/>
	<path class="st1" d="M14.1,1.1C13.4,0.4,12.5,0,11.6,0h-8C2.7,0,1.8,0.4,1.1,1.1C0.4,1.8,0,2.7,0,3.6v8c0,0.9,0.4,1.8,1.1,2.5
		c0.7,0.7,1.6,1.1,2.5,1.1h8c0.9,0,1.8-0.4,2.5-1.1c0.7-0.7,1.1-1.6,1.1-2.5v-8C15.2,2.7,14.8,1.8,14.1,1.1z M14,11.6
		c0,0.6-0.3,1.2-0.8,1.6c-0.4,0.4-1,0.8-1.6,0.8h-8C3,14,2.4,13.7,2,13.2c-0.4-0.4-0.8-1-0.8-1.6v-8C1.2,3,1.5,2.4,2,2
		c0.4-0.4,1-0.8,1.6-0.8h8c0.6,0,1.2,0.3,1.6,0.8C13.7,2.4,14,3,14,3.6V11.6z"/>
</g>
</svg>
