<svg width="318" height="208" viewBox="0 0 318 208" fill="none" xmlns="http://www.w3.org/2000/svg">
<g filter="url(#filter0_d)">
<path d="M234.571 115.401C231.042 116.188 227.823 117.193 224.725 118.435C222.459 119.342 220.218 120.409 217.77 121.186C216.789 121.487 215.792 121.718 214.696 121.918C210.519 122.68 207.15 119.947 208.149 115.768C208.487 114.344 209.087 113.025 209.747 111.888C209.987 111.488 210.22 111.079 210.452 110.68C211.05 110.876 211.646 111.069 212.244 111.264C213.181 111.545 214.173 111.639 215.208 111.811C216.835 112.08 218.824 111.828 220.226 111.555C223.985 110.813 227.205 109.84 230.026 108.192C239.402 102.718 244.825 94.8257 248.361 83.5241C249.204 80.8083 249.662 77.9019 250.257 74.9213C250.665 72.8974 250.561 70.8396 250.916 68.6964C251.177 67.1419 250.865 65.3727 251.138 63.7209V61.1266C251.121 60.4385 251.113 59.7565 251.093 59.0715C250.98 57.7909 250.862 56.5122 250.734 55.2315C250.476 53.7613 250.453 52.3894 250.116 51.0233C247.696 41.2572 244.744 33.2762 235.994 29.8694C234.095 29.1263 232.024 28.8213 229.928 28.8213C224.681 28.8213 219.269 30.758 215.904 32.7236C214.404 33.5992 212.958 34.3824 211.589 35.3601C204.39 40.5 199.531 48.1761 196.585 57.5703C195.408 61.3392 194.994 65.3918 194.249 69.7233C193.797 72.2867 193.839 75.0898 193.839 77.926C193.861 79.0462 193.865 80.1655 193.881 81.2946C193.888 81.9566 193.904 82.6295 193.913 83.3035C194.038 84.8539 194.154 86.3984 194.281 87.9509L195.015 92.4549C196.015 96.4604 197.333 99.7219 199.475 102.523C200.589 103.968 201.861 105.183 203.357 106.25C203.72 106.515 204.069 106.893 204.523 107.058C204.544 107.093 204.57 107.121 204.599 107.166C203.471 108.36 202.589 109.83 201.633 111.191C198.218 116.045 195.466 121.21 193.622 127.7C192.803 130.582 192.199 135.09 193.04 138.426C193.552 140.472 194.474 142.009 195.599 143.433C195.983 143.93 197.224 144.819 197.389 145.34C196.744 145.648 195.801 146.919 195.339 147.503C194.055 149.133 192.864 150.786 192.271 153.134C191.051 157.959 192.772 162.642 195.121 165.001C195.498 165.375 195.917 165.872 196.438 166.093C196.463 166.125 196.484 166.166 196.513 166.201C195.767 166.996 194.223 167.657 193.255 168.252C190.589 169.886 187.784 171.398 184.807 172.718C181.167 174.324 177.38 175.91 173.356 177.184C170.431 178.1 167.389 178.752 164.282 179.532C161.705 180.165 158.957 180.322 156.233 180.806C155.354 180.879 154.473 180.952 153.597 181.026C152.146 181.124 150.696 181.221 149.245 181.319H148.108C146.814 181.527 144.469 181.48 143.206 181.281C141.681 181.194 140.156 181.107 138.632 181.026C135.431 180.49 132.293 180.368 129.34 179.632C123.418 178.167 118.095 176.516 113.056 174.286C111.232 173.365 109.4 172.438 107.571 171.514C106.777 171.046 106.028 170.387 105.01 170.191C103.824 169.971 101.667 169.971 100.436 170.153C99.5205 170.191 98.6082 170.23 97.6949 170.262C95.5053 170.387 93.3248 170.506 91.1424 170.632C88.0447 170.887 84.9507 171.146 81.851 171.398C92.2753 168.645 102.7 165.889 113.13 163.126V151.087C111.232 151.576 109.327 152.063 107.423 152.553V61.8907C97.8502 64.3949 88.2741 66.8922 78.704 69.3964C78.6921 73.1131 78.678 76.8398 78.666 80.5596C80.5547 80.0702 82.4476 79.5788 84.3363 79.0894V153.834C83.2575 153.019 81.8039 151.223 80.9348 150.134C79.0349 147.765 76.9006 145.588 75.0469 143.146C73.0319 140.482 70.9887 137.816 69.0448 135.059C64.0834 127.996 59.983 120.081 56.3479 111.74C54.7458 108.07 53.3954 104.265 51.8836 100.399C51.6711 99.8482 50.2996 96.3711 50.3909 95.9631C57.593 79.7632 64.8001 63.5605 72.0063 47.3588C74.3231 46.751 76.6419 46.1413 78.9598 45.5315H79.0329V33.3063C70.4504 35.5388 61.8618 37.7731 53.273 40.0066V52.2268C55.7984 51.5789 58.3248 50.9372 60.8471 50.2883C52.7277 68.3534 44.6043 86.4286 36.4849 104.504C36.4568 104.507 36.4287 104.517 36.4097 104.535C36.4177 88.5636 36.4287 72.5895 36.4478 56.6205C38.505 56.097 40.5702 55.5725 42.6314 55.046C42.6413 50.9562 42.6544 46.8703 42.6674 42.7867C30.4818 45.9639 18.3001 49.1541 6.11548 52.3421V64.5615C8.18969 64.0239 10.2609 63.4874 12.3361 62.9518V179.126C10.2729 179.648 8.21075 180.172 6.15057 180.697L6.11548 192.193C18.3944 188.924 30.6813 185.649 42.9561 182.381V171.146C40.7877 171.692 38.6152 172.235 36.4478 172.788C36.4287 155.552 36.4177 138.313 36.4097 121.074H36.4478C38.4468 125.323 40.4448 129.564 42.4459 133.812C43.3863 135.947 44.1952 138.093 45.1186 140.182C46.7386 143.842 48.835 147.268 50.8981 150.537C58.6677 162.862 70.0333 172.648 82.617 180.189C85.447 181.876 88.4837 183.56 91.5835 184.949C94.9309 186.426 98.3735 187.744 101.899 189.121C104.485 190.121 107.188 190.702 109.95 191.531C113.729 192.655 117.831 193.235 121.984 194.058C123.52 194.251 125.059 194.446 126.595 194.642C128.448 194.786 130.303 194.93 132.156 195.08C132.669 195.09 133.182 195.109 133.692 195.125C134.585 195.144 135.47 195.168 136.365 195.199H139.289C140.192 195.179 141.097 195.168 142.001 195.153C143.695 195.035 145.391 194.91 147.084 194.786C149.585 194.384 151.971 194.397 154.328 193.908C158.038 193.148 161.674 192.556 165.085 191.495C176.359 187.994 185.362 183.419 193.731 177.103C195.393 175.856 196.917 174.489 198.521 173.194C199.122 172.62 199.721 172.045 200.319 171.472C201.291 170.506 202.269 169.548 203.246 168.581C204.691 168.671 206.515 169.078 208.178 168.803C209.986 168.504 211.768 168.596 213.448 168.252C217.145 167.503 220.584 166.66 223.883 165.617C235.655 161.907 244.969 156.168 250.7 146.4C254.119 140.585 255.903 129.771 252.639 122.358C250.095 116.584 243.074 113.505 234.571 115.401ZM217.145 57.6444C217.145 51.6442 217.159 45.9047 219.779 42.565C220.483 41.6774 221.747 41.0456 223.005 40.7366C223.381 40.6906 223.76 40.6354 224.137 40.5903C229.66 40.6675 228.527 48.9965 228.527 54.6439C228.518 66.0276 228.503 77.4115 228.491 88.7943C228.491 94.1437 228.289 97.0372 225.092 99.2616C224.36 99.7741 223.128 100.546 221.794 100.546C221.626 100.546 221.457 100.526 221.284 100.506C220.007 100.307 219.122 99.8833 218.541 99.0048C217.407 97.3059 217.68 94.8538 217.295 92.3416C217.284 91.3687 217.272 90.391 217.255 89.4172C217.22 87.4394 217.182 85.4627 217.145 83.4871V57.6444ZM240.118 145.707C239.37 147.453 237.794 148.766 236.28 149.767C231.134 153.201 224.231 154.821 217.22 156.358C215.7 156.69 214.104 156.603 212.462 156.867C211.391 157.043 209.998 156.882 209.093 156.722C206.202 156.214 204 155.573 203.138 153.064C202.922 152.455 202.817 151.419 203.026 150.684C203.187 150.106 203.47 149.592 203.719 149.109C204.052 148.465 204.433 147.629 204.963 147.178C205.136 147.023 205.816 147.034 206.437 147.041C206.588 147.044 206.735 147.048 206.877 147.048C207.084 147.048 207.263 147.041 207.385 147.023C209.33 146.708 211.126 146.593 212.867 146.107C218.044 144.679 222.865 143.233 227.942 141.725C229.666 141.204 231.457 140.928 233.291 140.543C234.051 140.461 234.82 140.378 235.588 140.29C238.416 140.259 240.087 140.644 240.526 143.045C240.706 143.997 240.411 145.04 240.118 145.707Z" fill="#D7B154"/>
<path d="M88.6201 59.2929C91.7088 60.2235 95.2216 59.3028 97.5094 58.2991C103.042 55.8769 107.209 50.3611 108.816 43.9937C111.123 34.8344 106.416 26.751 97.7059 26.751H97.7019H97.5444C96.9249 26.8412 96.2993 26.9246 95.6818 27.0117C94.5248 27.2976 93.4372 27.6646 92.4226 28.1079C87.6826 30.1828 84.1347 34.3619 82.1066 39.1667C81.5573 40.4545 81.1842 41.8746 80.8604 43.3729C79.1833 51.1584 83.1171 57.6341 88.6201 59.2929Z" fill="#D7B154"/>
<path d="M118.838 149.477C118.812 153.501 118.791 157.532 118.77 161.553C130.253 158.369 141.742 155.184 153.235 152.004V140.511C151.338 141.007 149.447 141.512 147.563 142.008V81.3992C147.563 74.5565 148.072 69.1839 151.327 65.5886C152.114 64.7171 154.089 63.1767 155.973 63.5077C158.063 63.8647 158.165 66.1231 158.537 68.2212C158.794 69.6564 158.625 71.3312 158.865 72.8706V74.6647C158.878 77.7858 158.891 80.9078 158.899 84.0379V150.208C168.462 147.705 178.023 145.207 187.588 142.701H187.658V131.541C185.782 132.03 183.905 132.518 182.021 133.007H181.988V72.654C181.988 60.9863 182.361 51.0607 175.074 46.4804C173.153 45.276 170.873 44.4316 167.739 44.4316H167.462C167.095 44.4557 166.734 44.4787 166.368 44.5078C165.707 44.6132 165.048 44.7265 164.391 44.8368C162.223 45.3773 160.179 46.0863 158.462 47.1034C155.427 48.9035 152.758 51.4197 150.635 54.1286C149.608 55.4353 148.585 56.7442 147.563 58.0469V51.3516C137.961 53.8528 128.361 56.354 118.77 58.8552V70.0114C120.666 69.53 122.571 69.0426 124.475 68.5521V148.013C122.594 148.504 120.714 148.986 118.838 149.477Z" fill="#D7B154"/>
<path d="M264.2 10.067C263.934 8.43934 263.842 6.89789 263.321 5.52294C262.027 2.15321 259.427 0 254.753 0H254.616C254.018 0.0722083 253.415 0.14542 252.818 0.220636C251.393 0.555603 250.038 0.985844 248.905 1.64675C245.939 3.38275 243.71 5.87395 242.613 9.47934C242.319 10.4501 242.292 11.3989 242.094 12.5181C241.841 14.0806 242.088 16.0212 242.466 17.2749C242.847 18.5365 243.392 19.6737 244.114 20.6024C244.911 21.6525 246.118 22.4738 247.661 22.7656C248.288 22.888 248.937 22.7717 249.551 22.6624C250.622 22.4738 251.569 22.2753 252.018 23.3133C252.408 24.2208 252.15 25.6871 251.835 26.4623C251.072 28.3368 249.589 29.6756 248.43 31.187C247.906 31.8419 247.381 32.4997 246.864 33.1607C246.944 33.614 247.299 33.9499 247.522 34.2929C248.185 35.4181 248.861 36.5384 249.526 37.6576C249.887 37.6215 250.312 37.1873 250.622 36.9627C252.095 35.9297 253.319 34.7362 254.683 33.635C255.854 32.6973 256.869 31.4918 257.797 30.3015C260.783 26.4714 262.995 22.5279 264.127 16.7272C264.5 14.7917 264.521 12.0568 264.2 10.067Z" fill="#D7B154"/>
<path d="M309.891 76.1238C309.05 72.8513 307.89 69.9549 306.312 67.4196C302.956 62.0462 298.223 57.9914 293.1 54.3871C286.795 49.9463 280.091 46.6758 277.917 38.064C276.587 32.8048 279.497 27.4474 282.344 25.3613C283.549 24.4799 285.767 23.5713 287.723 24.4137C292.661 26.5368 293.019 36.1906 292.954 43.5538C297.613 42.3483 302.271 41.1338 306.936 39.9283C306.939 32.2713 306.956 24.6071 306.969 16.9481V11.4944C306.969 11.03 307.139 9.83557 306.893 9.55176C303.71 10.3811 300.525 11.2125 297.345 12.0429C296.772 13.1772 296.203 14.3115 295.621 15.4438C294.499 15.0306 293.358 14.6124 292.228 14.2032C290.892 13.785 289.537 13.5804 288.019 13.3206C284.278 12.6928 279.553 14.6244 277.296 15.7726C268.8 20.0981 263.978 27.8776 261.018 37.7722C258.765 45.2819 258.795 57.6054 262.298 63.6487C266.302 70.5768 272.028 75.3937 278.316 80.0059C282.544 83.105 288.753 87.2329 290.754 92.3405C291.239 93.551 291.16 94.7866 291.416 96.3341C291.574 97.2737 291.432 98.4772 291.27 99.2976C290.548 103.099 289.019 105.391 286.042 106.911C284.454 107.715 281.725 108.366 279.708 107.495C276.863 106.263 275.998 102.89 275.318 99.4741C275.183 98.1975 275.047 96.9177 274.914 95.6361C274.844 94.1989 274.767 92.7537 274.698 91.3185C274.662 89.8524 274.62 88.3891 274.588 86.927C270.202 88.0672 265.811 89.2205 261.417 90.3698C261.391 100.8 261.367 111.233 261.344 121.668V123.271C264.759 122.379 268.173 121.487 271.587 120.597C271.954 119.173 272.32 117.764 272.686 116.356L274.295 117.157C275.334 117.594 276.366 118.036 277.406 118.474C280.494 119.666 285.062 119.358 288.163 118.403C299.305 114.96 305.983 105.581 309.386 94.3183C310.871 89.387 311.293 81.5584 309.891 76.1238Z" fill="#D7B154"/>
</g>
<defs>
<filter id="filter0_d" x="2.11548" y="0" width="312.633" height="203.199" filterUnits="userSpaceOnUse" color-interpolation-filters="sRGB">
<feFlood flood-opacity="0" result="BackgroundImageFix"/>
<feColorMatrix in="SourceAlpha" type="matrix" values="0 0 0 0 0 0 0 0 0 0 0 0 0 0 0 0 0 0 127 0"/>
<feOffset dy="4"/>
<feGaussianBlur stdDeviation="2"/>
<feColorMatrix type="matrix" values="0 0 0 0 0 0 0 0 0 0 0 0 0 0 0 0 0 0 0.25 0"/>
<feBlend mode="normal" in2="BackgroundImageFix" result="effect1_dropShadow"/>
<feBlend mode="normal" in="SourceGraphic" in2="effect1_dropShadow" result="shape"/>
</filter>
</defs>
</svg>
