<svg width="166" height="38" viewBox="0 0 166 38" fill="none" xmlns="http://www.w3.org/2000/svg">
<path d="M52.912 23.0579C52.912 24.4748 52.4392 25.5483 51.4936 26.2353C50.5479 26.9652 49.1725 27.3087 47.4102 27.3087C45.5189 27.3087 43.8426 26.7934 42.3382 25.72C42.1233 25.5483 42.0803 25.3336 42.2093 25.1189L43.3698 23.1867C43.5417 22.929 43.7137 22.8861 43.9716 23.0579C45.0461 23.7878 46.2067 24.1742 47.4532 24.1742C47.969 24.1742 48.3988 24.0884 48.6997 23.9166C49.0006 23.7449 49.1725 23.4872 49.1725 23.1867C49.1725 22.8861 49.0006 22.6714 48.6997 22.5426C48.3988 22.4138 47.969 22.285 47.4102 22.1562C44.1865 21.598 42.5531 20.224 42.5531 18.0341C42.5531 16.7031 43.0259 15.7155 43.9716 15.0285C44.9172 14.3415 46.2067 13.998 47.84 13.998C49.3014 13.998 50.7199 14.3844 52.1813 15.1144C52.4392 15.2432 52.4822 15.4579 52.3102 15.7155L51.1927 17.6047C51.0637 17.8624 50.8488 17.9053 50.5909 17.7765C49.6883 17.3042 48.7427 17.0895 47.754 17.0895C46.7225 17.0895 46.2067 17.3901 46.2067 17.9912C46.2067 18.3347 46.3786 18.5494 46.6795 18.6782C46.9804 18.807 47.5391 18.9788 48.3558 19.1076C51.4076 19.5799 52.912 20.911 52.912 23.0579ZM58.5857 22.1562C58.5857 23.3584 59.1445 23.9595 60.2191 23.9595C60.391 23.9595 60.6489 23.9595 60.9928 23.9166C61.2937 23.8737 61.4656 24.0025 61.4656 24.3031V26.7076C61.4656 26.9652 61.3366 27.1369 61.1217 27.1799C60.6489 27.2658 60.1331 27.3087 59.5744 27.3087C58.1129 27.3087 56.9524 26.9223 56.0927 26.1064C55.2331 25.3336 54.8032 24.1742 54.8032 22.6285V11.6793C54.8032 11.4217 54.9322 11.2499 55.2331 11.2499H57.7691C58.027 11.2499 58.1989 11.3788 58.1989 11.6364L58.4998 14.5562H60.6919C60.9928 14.5562 61.1217 14.685 61.1217 14.9855V17.3471C61.1217 17.6047 60.9928 17.7765 60.6919 17.7765H58.4998V22.1562H58.5857ZM63.3139 15.2861C64.7323 14.3844 66.4086 13.955 68.3429 13.955C70.0622 13.955 71.3946 14.4273 72.2973 15.329C73.1999 16.2307 73.6727 17.6047 73.6727 19.4511V26.1494C73.6727 26.407 73.5438 26.5358 73.2859 26.6217C71.7385 27.094 70.0622 27.3087 68.2569 27.3087C66.4516 27.3087 65.0332 26.9652 64.0446 26.2782C63.013 25.5912 62.5402 24.5177 62.5402 23.1437C62.5402 21.8985 63.013 20.9539 63.9156 20.3098C64.9042 19.6228 66.1937 19.3223 67.913 19.3223C68.4718 19.3223 69.1595 19.3652 69.9762 19.4511V19.1934C69.9762 18.5064 69.8043 17.9912 69.5034 17.6906C69.2025 17.3471 68.6867 17.2183 67.913 17.2183C66.7095 17.2183 65.6779 17.433 64.8612 17.9053C64.6033 18.0341 64.3884 17.9912 64.2595 17.7765L63.2709 15.8872C63.1419 15.5867 63.1849 15.4149 63.3139 15.2861ZM66.3656 23.0149C66.3656 23.8737 67.0104 24.3031 68.2999 24.3031C68.8157 24.3031 69.3745 24.2172 69.9762 24.0884V21.9415C69.5034 21.8556 68.9446 21.8127 68.2999 21.8127C67.0104 21.8127 66.3656 22.1991 66.3656 23.0149ZM79.5614 27.0081H76.6815C76.3807 27.0081 76.2517 26.8793 76.2517 26.5788V15.4579C76.2517 15.2432 76.3377 15.0714 76.5526 14.9426C77.9281 14.2556 79.4325 13.955 81.0658 13.955C81.6676 13.955 82.4413 14.0409 83.4299 14.2127C83.6878 14.2556 83.8167 14.4273 83.8167 14.685V16.9177C83.8167 17.2183 83.6448 17.3471 83.3439 17.3042C82.9141 17.2183 82.3983 17.2183 81.8395 17.2183C81.1088 17.2183 80.507 17.3042 79.9912 17.5189V26.5358C79.9912 26.8364 79.8193 27.0081 79.5614 27.0081ZM95.5081 23.0579C95.5081 24.4748 95.0352 25.5483 94.0896 26.2353C93.144 26.9652 91.7685 27.3087 90.0062 27.3087C88.115 27.3087 86.4387 26.7934 84.9343 25.72C84.7193 25.5483 84.6764 25.3336 84.8053 25.1189L85.9659 23.1867C86.1378 22.929 86.3097 22.8861 86.5676 23.0579C87.6422 23.7878 88.8027 24.1742 90.0492 24.1742C90.565 24.1742 90.9948 24.0884 91.2957 23.9166C91.5966 23.7449 91.7685 23.4872 91.7685 23.1867C91.7685 22.8861 91.5966 22.6714 91.2957 22.5426C90.9948 22.4138 90.565 22.285 90.0062 22.1562C86.7825 21.598 85.1492 20.224 85.1492 18.0341C85.1492 16.7031 85.622 15.7155 86.5676 15.0285C87.5132 14.3415 88.8027 13.998 90.4361 13.998C91.8975 13.998 93.3159 14.3844 94.7773 15.1144C95.0352 15.2432 95.0782 15.4579 94.9063 15.7155L93.7887 17.6047C93.6598 17.8624 93.4449 17.9053 93.187 17.7765C92.2843 17.3042 91.3387 17.0895 90.3501 17.0895C89.3185 17.0895 88.8027 17.3901 88.8027 17.9912C88.8027 18.3347 88.9747 18.5494 89.2755 18.6782C89.5764 18.807 90.1352 18.9788 90.9519 19.1076C94.0037 19.5799 95.5081 20.911 95.5081 23.0579ZM110.982 15.0285C112.271 14.3415 113.475 13.998 114.635 13.998C116.269 13.998 117.601 14.4703 118.59 15.4149C119.578 16.3595 120.094 17.6477 120.094 19.3652V26.5788C120.094 26.8793 119.965 27.0081 119.664 27.0081H116.828C116.527 27.0081 116.398 26.8793 116.398 26.5788V19.1934C116.398 17.9053 115.753 17.3042 114.507 17.3042C113.948 17.3042 113.432 17.433 112.916 17.6906C113.088 18.1629 113.174 18.6782 113.174 19.2793V26.5358C113.174 26.8364 113.045 26.9652 112.744 26.9652H109.907C109.606 26.9652 109.478 26.8364 109.478 26.5358V19.1934C109.478 17.9053 108.876 17.2612 107.672 17.2612C107.199 17.2612 106.684 17.3471 106.211 17.4759V26.5358C106.211 26.8364 106.082 26.9652 105.781 26.9652H102.944C102.643 26.9652 102.514 26.8364 102.514 26.5358V15.4579C102.514 15.2002 102.643 15.0285 102.858 14.8997C104.406 14.2556 105.996 13.955 107.629 13.955C108.876 13.998 109.993 14.3415 110.982 15.0285ZM133.419 19.1505V21.5121C133.419 21.7697 133.29 21.9415 132.989 21.9415H126.069V22.3279C126.069 22.929 126.241 23.4014 126.628 23.7449C127.015 24.0884 127.53 24.2172 128.175 24.2172C129.25 24.2172 130.281 23.9166 131.27 23.3584C131.485 23.1867 131.657 23.2296 131.829 23.4443L133.118 25.1189C133.29 25.3765 133.247 25.5483 133.032 25.72C131.614 26.7934 129.98 27.3516 128.046 27.3516C126.37 27.3516 124.994 26.9223 123.92 26.0206C122.845 25.1189 122.286 23.8737 122.286 22.242V19.1505C122.286 17.433 122.802 16.1449 123.877 15.2432C124.951 14.3844 126.284 13.955 127.96 13.955C129.594 13.955 130.883 14.3844 131.915 15.2432C132.903 16.1019 133.419 17.433 133.419 19.1505ZM129.808 18.9788C129.808 18.3347 129.636 17.8624 129.293 17.5189C128.949 17.1754 128.476 17.0466 127.917 17.0466C126.671 17.0466 126.026 17.6906 126.026 18.9788V19.494H129.808V18.9788ZM142.746 14.3844V9.96181C142.746 9.66124 142.875 9.53243 143.176 9.53243H146.056C146.357 9.53243 146.486 9.66124 146.486 9.96181V25.8918C146.486 26.1494 146.357 26.3211 146.142 26.407C144.509 27.0081 142.789 27.2658 140.984 27.2658C139.222 27.2658 137.846 26.7934 136.772 25.8059C135.697 24.8183 135.181 23.4872 135.181 21.7268V19.3223C135.181 17.6906 135.654 16.3595 136.643 15.372C137.631 14.3844 138.878 13.9121 140.468 13.9121C141.242 13.955 141.973 14.0838 142.746 14.3844ZM139.007 21.8556C139.007 23.3155 139.694 24.0454 141.07 24.0454C141.715 24.0454 142.273 23.9595 142.746 23.7878V17.6047C142.23 17.3471 141.672 17.1754 141.027 17.1754C139.694 17.1754 139.007 17.8624 139.007 19.2793V21.8556ZM153.148 10.4771C153.148 11.0782 152.976 11.5505 152.589 11.9369C152.203 12.3234 151.73 12.5381 151.128 12.5381C150.526 12.5381 150.01 12.3234 149.624 11.9369C149.237 11.5505 149.022 11.0782 149.022 10.4771C149.022 9.87593 149.237 9.40362 149.624 9.01718C150.01 8.63074 150.526 8.45898 151.128 8.45898C151.73 8.45898 152.203 8.63074 152.589 9.01718C152.976 9.40362 153.148 9.87593 153.148 10.4771ZM152.546 27.0081H149.667C149.366 27.0081 149.237 26.8793 149.237 26.5788V14.7279C149.237 14.4703 149.366 14.2985 149.667 14.2985H152.546C152.804 14.2985 152.976 14.4273 152.976 14.7279V26.5788C152.933 26.8364 152.804 27.0081 152.546 27.0081ZM155.598 15.2861C157.017 14.3844 158.693 13.955 160.627 13.955C162.346 13.955 163.679 14.4273 164.582 15.329C165.484 16.2307 165.957 17.6047 165.957 19.4511V26.1494C165.957 26.407 165.828 26.5358 165.57 26.6217C164.023 27.094 162.346 27.3087 160.541 27.3087C158.736 27.3087 157.317 26.9652 156.329 26.2782C155.297 25.5912 154.824 24.5177 154.824 23.1437C154.824 21.8985 155.297 20.9539 156.2 20.3098C157.146 19.6658 158.435 19.3652 160.154 19.3652C160.713 19.3652 161.401 19.4081 162.218 19.494V19.2364C162.218 18.5494 162.046 18.0341 161.745 17.7336C161.444 17.3901 160.928 17.2612 160.154 17.2612C158.951 17.2612 157.919 17.4759 157.103 17.9482C156.845 18.0771 156.63 18.0341 156.501 17.8194L155.512 15.9302C155.426 15.5867 155.469 15.4149 155.598 15.2861ZM158.65 23.0149C158.65 23.8737 159.295 24.3031 160.584 24.3031C161.1 24.3031 161.659 24.2172 162.261 24.0884V21.9415C161.788 21.8556 161.229 21.8127 160.584 21.8127C159.295 21.8127 158.65 22.1991 158.65 23.0149Z" fill="#333333"/>
<path d="M42.8109 37.9571L21.9212 33.0621L19.4712 32.504L14.958 21.0825L21.1476 0.515254C21.3625 -0.171751 22.3511 -0.171751 22.566 0.515254L25.3599 9.78983L28.7555 21.0825L29.7012 22.0701L43.4987 36.7548C43.9715 37.2701 43.4987 38.1288 42.8109 37.9571Z" fill="url(#paint0_linear)"/>
<path d="M29.7012 22.07V30.1853C29.7012 30.7435 29.3143 31.2158 28.7985 31.3446L21.9213 33.0621H21.8783L10.4878 35.7242L0.902635 37.957C0.214909 38.1288 -0.300886 37.27 0.214909 36.7547L2.79388 34.0067L13.3247 22.8429L14.1844 21.8983L14.958 21.0824L25.3599 9.78978L27.9389 6.99882C28.4117 6.48357 29.3143 6.91294 29.1854 7.59995L29.5722 17.3898L29.7012 22.07Z" fill="url(#paint1_linear)"/>
<defs>
<linearGradient id="paint0_linear" x1="14.3356" y1="38.4397" x2="32.1002" y2="19.2815" gradientUnits="userSpaceOnUse">
<stop stop-color="#3260AB"/>
<stop offset="0.284" stop-color="#3A5CA7"/>
<stop offset="0.715" stop-color="#4B519E"/>
<stop offset="0.988" stop-color="#544696"/>
</linearGradient>
<linearGradient id="paint1_linear" x1="3.51643" y1="34.5121" x2="33.9694" y2="15.6841" gradientUnits="userSpaceOnUse">
<stop stop-color="#3260AB"/>
<stop offset="0.12" stop-color="#3065AE"/>
<stop offset="0.302" stop-color="#2971B7"/>
<stop offset="0.524" stop-color="#1B86C5"/>
<stop offset="0.776" stop-color="#00A0D7"/>
<stop offset="0.988" stop-color="#00B8E5"/>
</linearGradient>
</defs>
</svg>
