<svg width="120" height="120" viewBox="0 0 120 120" fill="none" xmlns="http://www.w3.org/2000/svg">
<g filter="url(#filter0_d)">
<circle cx="60" cy="50" r="40" fill="white"/>
</g>
<path fill-rule="evenodd" clip-rule="evenodd" d="M60 52C60.5523 52 61 52.4477 61 53V60C61 60.5523 60.5523 61 60 61C59.4477 61 59 60.5523 59 60V53C59 52.4477 59.4477 52 60 52Z" fill="#00113B"/>
<path fill-rule="evenodd" clip-rule="evenodd" d="M60 39C60.5523 39 61 39.4477 61 40V47C61 47.5523 60.5523 48 60 48C59.4477 48 59 47.5523 59 47V40C59 39.4477 59.4477 39 60 39Z" fill="#00113B"/>
<path fill-rule="evenodd" clip-rule="evenodd" d="M55.2929 55.2929C55.6834 54.9024 56.3166 54.9024 56.7071 55.2929L60 58.5858L63.2929 55.2929C63.6834 54.9024 64.3166 54.9024 64.7071 55.2929C65.0976 55.6834 65.0976 56.3166 64.7071 56.7071L60.7071 60.7071C60.3166 61.0976 59.6834 61.0976 59.2929 60.7071L55.2929 56.7071C54.9024 56.3166 54.9024 55.6834 55.2929 55.2929Z" fill="#00113B"/>
<path fill-rule="evenodd" clip-rule="evenodd" d="M59.2929 39.2929C59.6834 38.9024 60.3166 38.9024 60.7071 39.2929L64.7071 43.2929C65.0976 43.6834 65.0976 44.3166 64.7071 44.7071C64.3166 45.0976 63.6834 45.0976 63.2929 44.7071L60 41.4142L56.7071 44.7071C56.3166 45.0976 55.6834 45.0976 55.2929 44.7071C54.9024 44.3166 54.9024 43.6834 55.2929 43.2929L59.2929 39.2929Z" fill="#00113B"/>
<path fill-rule="evenodd" clip-rule="evenodd" d="M49 50C49 49.4477 49.4477 49 50 49H70C70.5523 49 71 49.4477 71 50C71 50.5523 70.5523 51 70 51H50C49.4477 51 49 50.5523 49 50Z" fill="#00113B"/>
<defs>
<filter id="filter0_d" x="0" y="0" width="120" height="120" filterUnits="userSpaceOnUse" color-interpolation-filters="sRGB">
<feFlood flood-opacity="0" result="BackgroundImageFix"/>
<feColorMatrix in="SourceAlpha" type="matrix" values="0 0 0 0 0 0 0 0 0 0 0 0 0 0 0 0 0 0 127 0"/>
<feOffset dy="10"/>
<feGaussianBlur stdDeviation="10"/>
<feColorMatrix type="matrix" values="0 0 0 0 0 0 0 0 0 0 0 0 0 0 0 0 0 0 0.12 0"/>
<feBlend mode="normal" in2="BackgroundImageFix" result="effect1_dropShadow"/>
<feBlend mode="normal" in="SourceGraphic" in2="effect1_dropShadow" result="shape"/>
</filter>
</defs>
</svg>
