<svg width="15" height="15" viewBox="0 0 15 15" fill="none" xmlns="http://www.w3.org/2000/svg">
<path d="M13.2422 0H1.75781C0.788555 0 0 0.788555 0 1.75781V13.2422C0 14.2114 0.788555 15 1.75781 15H13.2422C14.2114 15 15 14.2114 15 13.2422V1.75781C15 0.788555 14.2114 0 13.2422 0ZM13.8281 13.2422C13.8281 13.5653 13.5653 13.8281 13.2422 13.8281H9.90234V9.05273H11.7126L12.0117 7.23633H9.90234V5.97656C9.90234 5.47925 10.2839 5.09766 10.7812 5.09766H11.9824V3.28125H10.7812C9.28937 3.28125 8.08658 4.48975 8.08658 5.98166V7.23633H6.32812V9.05273H8.08658V13.8281H1.75781C1.43473 13.8281 1.17188 13.5653 1.17188 13.2422V1.75781C1.17188 1.43473 1.43473 1.17188 1.75781 1.17188H13.2422C13.5653 1.17188 13.8281 1.43473 13.8281 1.75781V13.2422Z" fill="#141328"/>
</svg>
