<svg width="16" height="14" viewBox="0 0 16 14" fill="none" xmlns="http://www.w3.org/2000/svg">
<path d="M13.6647 0.00336433C11.446 -0.0773023 9.94733 1.1947 9.15667 3.79936C9.56333 3.61736 9.95867 3.53603 10.3413 3.53603C11.154 3.53603 11.5133 4.0007 11.4173 4.92403C11.3693 5.48336 11.012 6.2967 10.3427 7.3667C9.67 8.4367 9.16733 8.9727 8.83267 8.9727C7.818 8.9727 7.208 4.1167 7.00133 2.7907C6.714 0.947364 5.948 0.0853643 4.70333 0.206031C3.56067 0.314698 1.56667 2.37203 0 3.7667L0.752667 4.74803C1.46933 4.24003 1.88733 3.98536 2.00667 3.98536C3.254 3.98536 3.858 8.23003 4.82667 11.3867C5.47667 13.1287 6.256 14 7.19533 14C8.70467 14 10.5433 12.5707 12.722 9.7107C14.8253 6.9727 15.9147 4.8147 15.9847 3.2407L15.9933 3.23403C16.0827 1.12403 15.3127 0.044031 13.6647 0.00336433Z" fill="#111029"/>
</svg>
