<svg width="15" height="15" viewBox="0 0 15 15" fill="none" xmlns="http://www.w3.org/2000/svg">
<mask id="path-1-inside-1" fill="white">
<path d="M3.13721 10.9114H5.46338V4.79443H3.13721V10.9114ZM3.66361 5.32083H4.93698V10.385H3.66361V5.32083Z"/>
</mask>
<path d="M3.13721 10.9114H5.46338V4.79443H3.13721V10.9114ZM3.66361 5.32083H4.93698V10.385H3.66361V5.32083Z" fill="white"/>
<path d="M3.13721 10.9114H1.13721V12.9114H3.13721V10.9114ZM5.46338 10.9114V12.9114H7.46338V10.9114H5.46338ZM5.46338 4.79443H7.46338V2.79443H5.46338V4.79443ZM3.13721 4.79443V2.79443H1.13721V4.79443H3.13721ZM3.66361 5.32083V3.32083H1.66361V5.32083H3.66361ZM4.93698 5.32083H6.93698V3.32083H4.93698V5.32083ZM4.93698 10.385V12.385H6.93698V10.385H4.93698ZM3.66361 10.385H1.66361V12.385H3.66361V10.385ZM3.13721 12.9114H5.46338V8.91141H3.13721V12.9114ZM7.46338 10.9114V4.79443H3.46338V10.9114H7.46338ZM5.46338 2.79443H3.13721V6.79443H5.46338V2.79443ZM1.13721 4.79443V10.9114H5.13721V4.79443H1.13721ZM3.66361 7.32083H4.93698V3.32083H3.66361V7.32083ZM2.93698 5.32083V10.385H6.93698V5.32083H2.93698ZM4.93698 8.385H3.66361V12.385H4.93698V8.385ZM5.66361 10.385V5.32083H1.66361V10.385H5.66361Z" fill="white" mask="url(#path-1-inside-1)"/>
<mask id="path-3-inside-2" fill="white">
<path d="M4.30019 2C3.58325 2 3 2.58327 3 3.30019C3 4.01711 3.58325 4.60039 4.30019 4.60039C5.01712 4.60039 5.60039 4.01712 5.60039 3.30019C5.60039 2.58325 5.01711 2 4.30019 2V2ZM3.5264 3.30019C3.5264 2.87352 3.87351 2.5264 4.30019 2.5264C4.72687 2.5264 5.07399 2.87351 5.07399 3.30019C5.07399 3.72687 4.72687 4.07399 4.30019 4.07399C3.87351 4.07399 3.5264 3.72685 3.5264 3.30019V3.30019Z"/>
</mask>
<path d="M4.30019 2C3.58325 2 3 2.58327 3 3.30019C3 4.01711 3.58325 4.60039 4.30019 4.60039C5.01712 4.60039 5.60039 4.01712 5.60039 3.30019C5.60039 2.58325 5.01711 2 4.30019 2V2ZM3.5264 3.30019C3.5264 2.87352 3.87351 2.5264 4.30019 2.5264C4.72687 2.5264 5.07399 2.87351 5.07399 3.30019C5.07399 3.72687 4.72687 4.07399 4.30019 4.07399C3.87351 4.07399 3.5264 3.72685 3.5264 3.30019V3.30019Z" fill="white"/>
<path d="M4.30019 0C2.47866 0 1 1.47872 1 3.30019H5C5 3.68782 4.68784 4 4.30019 4V0ZM1 3.30019C1 5.12162 2.47863 6.60039 4.30019 6.60039V2.60039C4.68787 2.60039 5 2.91259 5 3.30019H1ZM4.30019 6.60039C6.12169 6.60039 7.60039 5.12169 7.60039 3.30019H3.60039C3.60039 2.91256 3.91256 2.60039 4.30019 2.60039V6.60039ZM7.60039 3.30019C7.60039 1.47863 6.12162 0 4.30019 0V4C3.91259 4 3.60039 3.68787 3.60039 3.30019H7.60039ZM5.5264 3.30019C5.5264 3.97806 4.97811 4.5264 4.30019 4.5264V0.526399C2.76891 0.526399 1.5264 1.76898 1.5264 3.30019H5.5264ZM4.30019 4.5264C3.62236 4.5264 3.07399 3.97813 3.07399 3.30019H7.07399C7.07399 1.76888 5.83138 0.526399 4.30019 0.526399V4.5264ZM3.07399 3.30019C3.07399 2.6223 3.6223 2.07399 4.30019 2.07399V6.07399C5.83144 6.07399 7.07399 4.83144 7.07399 3.30019H3.07399ZM4.30019 2.07399C4.97816 2.07399 5.5264 2.62237 5.5264 3.30019H1.5264C1.5264 4.83133 2.76885 6.07399 4.30019 6.07399V2.07399Z" fill="white" mask="url(#path-3-inside-2)"/>
<mask id="path-5-inside-3" fill="white">
<path d="M11.9783 6.7153C11.8955 5.52467 10.9024 4.60718 9.67111 4.60718C9.12038 4.60718 8.60049 4.79865 8.19086 5.13838V4.79447H5.96191V10.9115H8.2881V7.56594C8.2881 7.1889 8.59484 6.88215 8.9719 6.88215C9.34892 6.88215 9.65567 7.1889 9.65567 7.5661L9.65792 10.9115H11.9839V6.72095L11.9783 6.7153ZM7.76171 10.3851H6.48831V5.32089H7.66445V6.07271L8.08565 6.07513L8.16391 5.95364C8.49466 5.44013 9.0581 5.13359 9.67111 5.13359C10.6508 5.13359 11.4353 5.88112 11.457 6.83535L11.4575 10.3851H10.184L10.1821 7.56594C10.1821 6.89864 9.63918 6.35575 8.9719 6.35575C8.3046 6.35575 7.76171 6.89864 7.76171 7.56594V10.3851Z"/>
</mask>
<path d="M11.9783 6.7153C11.8955 5.52467 10.9024 4.60718 9.67111 4.60718C9.12038 4.60718 8.60049 4.79865 8.19086 5.13838V4.79447H5.96191V10.9115H8.2881V7.56594C8.2881 7.1889 8.59484 6.88215 8.9719 6.88215C9.34892 6.88215 9.65567 7.1889 9.65567 7.5661L9.65792 10.9115H11.9839V6.72095L11.9783 6.7153ZM7.76171 10.3851H6.48831V5.32089H7.66445V6.07271L8.08565 6.07513L8.16391 5.95364C8.49466 5.44013 9.0581 5.13359 9.67111 5.13359C10.6508 5.13359 11.4353 5.88112 11.457 6.83535L11.4575 10.3851H10.184L10.1821 7.56594C10.1821 6.89864 9.63918 6.35575 8.9719 6.35575C8.3046 6.35575 7.76171 6.89864 7.76171 7.56594V10.3851Z" fill="white"/>
<path d="M11.9783 6.7153L9.98312 6.85403L10.0349 7.59866L10.5619 8.1273L11.9783 6.7153ZM8.19086 5.13838H6.19086V9.39552L9.46764 6.67781L8.19086 5.13838ZM8.19086 4.79447H10.1909V2.79447H8.19086V4.79447ZM5.96191 4.79447V2.79447H3.96191V4.79447H5.96191ZM5.96191 10.9115H3.96191V12.9115H5.96191V10.9115ZM8.2881 10.9115V12.9115H10.2881V10.9115H8.2881ZM9.65567 7.5661L7.65567 7.5661L7.65567 7.56744L9.65567 7.5661ZM9.65792 10.9115L7.65792 10.9128L7.65926 12.9115H9.65792V10.9115ZM11.9839 10.9115V12.9115H13.9839V10.9115H11.9839ZM11.9839 6.72095H13.9839V5.89436L13.4004 5.30895L11.9839 6.72095ZM7.76171 10.3851V12.3851H9.76171V10.3851H7.76171ZM6.48831 10.3851H4.48831V12.3851H6.48831V10.3851ZM6.48831 5.32089V3.32089H4.48831V5.32089H6.48831ZM7.66445 5.32089H9.66445V3.32089H7.66445V5.32089ZM7.66445 6.07271H5.66445V8.06124L7.65295 8.07267L7.66445 6.07271ZM8.08565 6.07513L8.07415 8.0751L9.17234 8.08141L9.76703 7.15816L8.08565 6.07513ZM8.16391 5.95364L9.84529 7.03667L9.8453 7.03665L8.16391 5.95364ZM11.457 6.83535L13.457 6.83506L13.457 6.81246L13.4565 6.78987L11.457 6.83535ZM11.4575 10.3851V12.3851H13.4578L13.4575 10.3848L11.4575 10.3851ZM10.184 10.3851L8.18397 10.3864L8.18531 12.3851H10.184V10.3851ZM10.1821 7.56594L8.18207 7.56594L8.18207 7.56729L10.1821 7.56594ZM13.9735 6.57657C13.8156 4.30628 11.9213 2.60718 9.67111 2.60718V6.60718C9.78133 6.60718 9.85649 6.64556 9.90386 6.68899C9.95119 6.73238 9.97843 6.78658 9.98312 6.85403L13.9735 6.57657ZM9.67111 2.60718C8.65265 2.60718 7.68148 2.96249 6.91408 3.59896L9.46764 6.67781C9.5195 6.6348 9.5881 6.60718 9.67111 6.60718V2.60718ZM10.1909 5.13838V4.79447H6.19086V5.13838H10.1909ZM8.19086 2.79447H5.96191V6.79447H8.19086V2.79447ZM3.96191 4.79447V10.9115H7.96191V4.79447H3.96191ZM5.96191 12.9115H8.2881V8.91145H5.96191V12.9115ZM10.2881 10.9115V7.56594H6.2881V10.9115H10.2881ZM10.2881 7.56594C10.2881 8.29344 9.69944 8.88215 8.9719 8.88215V4.88215C7.49023 4.88215 6.2881 6.08436 6.2881 7.56594H10.2881ZM8.9719 8.88215C8.24402 8.88215 7.65567 8.29314 7.65567 7.5661H11.6557C11.6557 6.08467 10.4538 4.88215 8.9719 4.88215V8.88215ZM7.65567 7.56744L7.65792 10.9128L11.6579 10.9101L11.6557 7.56476L7.65567 7.56744ZM9.65792 12.9115H11.9839V8.91147H9.65792V12.9115ZM13.9839 10.9115V6.72095H9.98393V10.9115H13.9839ZM13.4004 5.30895L13.3947 5.3033L10.5619 8.1273L10.5675 8.13295L13.4004 5.30895ZM7.76171 8.38509H6.48831V12.3851H7.76171V8.38509ZM8.48831 10.3851V5.32089H4.48831V10.3851H8.48831ZM6.48831 7.32089H7.66445V3.32089H6.48831V7.32089ZM5.66445 5.32089V6.07271H9.66445V5.32089H5.66445ZM7.65295 8.07267L8.07415 8.0751L8.09715 4.07516L7.67594 4.07274L7.65295 8.07267ZM9.76703 7.15816L9.84529 7.03667L6.48253 4.8706L6.40427 4.99209L9.76703 7.15816ZM9.8453 7.03665C9.82771 7.06397 9.80086 7.08971 9.7675 7.10786C9.73419 7.12598 9.69986 7.13359 9.67111 7.13359V3.13359C8.38126 3.13359 7.18308 3.78298 6.48251 4.87063L9.8453 7.03665ZM9.67111 7.13359C9.64381 7.13359 9.59175 7.12041 9.54362 7.07454C9.49423 7.02748 9.45919 6.95401 9.45752 6.88083L13.4565 6.78987C13.409 4.70187 11.6899 3.13359 9.67111 3.13359V7.13359ZM9.45701 6.83565L9.45753 10.3854L13.4575 10.3848L13.457 6.83506L9.45701 6.83565ZM11.4575 8.38509H10.184V12.3851H11.4575V8.38509ZM12.184 10.3837L12.1821 7.5646L8.18207 7.56729L8.18397 10.3864L12.184 10.3837ZM12.1821 7.56594C12.1821 5.79409 10.7438 4.35575 8.9719 4.35575V8.35575C8.53459 8.35575 8.18207 8.00319 8.18207 7.56594H12.1821ZM8.9719 4.35575C7.20003 4.35575 5.76171 5.79408 5.76171 7.56594H9.76171C9.76171 8.00321 9.40917 8.35575 8.9719 8.35575V4.35575ZM5.76171 7.56594V10.3851H9.76171V7.56594H5.76171Z" fill="white" mask="url(#path-5-inside-3)"/>
<rect x="0.6" y="0.6" width="13.8" height="13.8" rx="2.4" stroke="white" stroke-width="1.2"/>
</svg>
