<svg width="16" height="16" viewBox="0 0 16 16" fill="none" xmlns="http://www.w3.org/2000/svg">
<g clip-path="url(#clip0)">
<path d="M10.4627 7.28076L6.92797 5.34668C6.72473 5.23548 6.48449 5.23963 6.28528 5.35767C6.08594 5.47583 5.96704 5.68457 5.96704 5.91626V9.75122C5.96704 9.98181 6.0852 10.1902 6.2832 10.3085C6.38659 10.3702 6.50122 10.4012 6.61609 10.4012C6.72131 10.4012 6.82678 10.3752 6.92382 10.323L10.4587 8.42224C10.6686 8.30933 10.7995 8.09119 10.8005 7.85279C10.8014 7.61438 10.672 7.39527 10.4627 7.28076ZM6.90466 9.2688V6.40259L9.54649 7.84815L6.90466 9.2688Z" fill="#fff"/>
<path d="M15.8823 4.79773L15.8815 4.79041C15.868 4.66162 15.7331 3.51611 15.1762 2.93347C14.5325 2.24817 13.8028 2.16492 13.4519 2.125C13.4228 2.1217 13.3962 2.11865 13.3724 2.11548L13.3444 2.11255C11.2292 1.95874 8.03476 1.93774 8.00278 1.93762L7.99997 1.9375L7.99716 1.93762C7.96518 1.93774 4.77073 1.95874 2.63646 2.11255L2.60827 2.11548C2.58556 2.11853 2.56054 2.12134 2.53332 2.12451C2.18639 2.16455 1.46447 2.24792 0.818967 2.95801C0.288573 3.53442 0.135253 4.6554 0.119506 4.78137L0.117675 4.79773C0.112915 4.85132 0 6.12708 0 7.40784V8.6051C0 9.88586 0.112915 11.1616 0.117675 11.2153L0.11853 11.2234C0.13208 11.3501 0.266845 12.4746 0.821164 13.0575C1.42639 13.7198 2.19164 13.8075 2.60326 13.8546C2.66832 13.8621 2.72435 13.8684 2.76256 13.8751L2.79955 13.8802C4.02086 13.9965 7.85007 14.0537 8.01242 14.056L8.0173 14.0562L8.02219 14.056C8.05417 14.0559 11.2485 14.0349 13.3637 13.8811L13.3917 13.8782C13.4184 13.8746 13.4484 13.8715 13.4814 13.868C13.8264 13.8314 14.5444 13.7554 15.181 13.0549C15.7114 12.4784 15.8648 11.3574 15.8804 11.2316L15.8823 11.2152C15.887 11.1615 16.0001 9.88586 16.0001 8.6051V7.40784C15.9999 6.12708 15.887 4.85144 15.8823 4.79773ZM15.0623 8.6051C15.0623 9.79053 14.9588 11.0114 14.949 11.1234C14.9092 11.4321 14.7475 12.1414 14.4891 12.4222C14.0906 12.8606 13.6813 12.9041 13.3825 12.9357C13.3464 12.9395 13.3129 12.9431 13.2827 12.9469C11.2368 13.0948 8.16293 13.1176 8.02133 13.1184C7.86252 13.1161 4.08934 13.0583 2.90526 12.9484C2.84459 12.9385 2.77904 12.9309 2.70995 12.9231C2.35949 12.8829 1.87975 12.828 1.51086 12.4222L1.50219 12.413C1.24829 12.1484 1.09118 11.4852 1.05127 11.1271C1.04382 11.0424 0.937618 9.80713 0.937618 8.6051V7.40784C0.937618 6.22375 1.04089 5.00427 1.0509 4.88989C1.09838 4.52625 1.26318 3.85999 1.51086 3.5907C1.9215 3.13904 2.35448 3.08899 2.64086 3.05591C2.6682 3.05273 2.69372 3.0498 2.71727 3.04675C4.79295 2.89807 7.88889 2.87598 7.99997 2.87512C8.11105 2.87585 11.2059 2.89807 13.2631 3.04675C13.2884 3.04993 13.316 3.0531 13.3457 3.05652C13.6402 3.09009 14.0854 3.14087 14.494 3.57666L14.4977 3.58069C14.7517 3.84521 14.9088 4.52002 14.9487 4.88538C14.9558 4.96533 15.0623 6.20325 15.0623 7.40784V8.6051Z" fill="#fff"/>
</g>
<defs>
<clipPath id="clip0">
<rect width="16" height="16" fill="white"/>
</clipPath>
</defs>
</svg>
